<mxfile host="app.diagrams.net" modified="2022-04-26T17:00:37.160Z" agent="5.0 (X11; CrOS x86_64 14695.9.0) AppleWebKit/537.36 (KHTML, like Gecko) Chrome/102.0.5005.5 Safari/537.36" etag="O0OLCfOpnpVWV4EccDyr" version="17.4.6" type="github">
  <diagram id="C5RBs43oDa-KdzZeNtuy" name="Page-1">
    <mxGraphModel dx="1369" dy="873" grid="1" gridSize="10" guides="1" tooltips="1" connect="1" arrows="1" fold="1" page="1" pageScale="1" pageWidth="827" pageHeight="1169" math="0" shadow="0">
      <root>
        <mxCell id="WIyWlLk6GJQsqaUBKTNV-0" />
        <mxCell id="WIyWlLk6GJQsqaUBKTNV-1" parent="WIyWlLk6GJQsqaUBKTNV-0" />
        <mxCell id="Cb-9Q1cVGjLwS2rmJe1S-2" style="edgeStyle=orthogonalEdgeStyle;rounded=0;orthogonalLoop=1;jettySize=auto;html=1;exitX=0;exitY=0.5;exitDx=0;exitDy=0;exitPerimeter=0;" edge="1" parent="WIyWlLk6GJQsqaUBKTNV-1" source="Cb-9Q1cVGjLwS2rmJe1S-0" target="Cb-9Q1cVGjLwS2rmJe1S-1">
          <mxGeometry relative="1" as="geometry">
            <mxPoint x="380" y="180" as="sourcePoint" />
          </mxGeometry>
        </mxCell>
        <mxCell id="Cb-9Q1cVGjLwS2rmJe1S-0" value="start" style="strokeWidth=2;html=1;shape=mxgraph.flowchart.terminator;whiteSpace=wrap;" vertex="1" parent="WIyWlLk6GJQsqaUBKTNV-1">
          <mxGeometry x="340" y="160" width="100" height="60" as="geometry" />
        </mxCell>
        <mxCell id="Cb-9Q1cVGjLwS2rmJe1S-14" style="edgeStyle=orthogonalEdgeStyle;rounded=0;orthogonalLoop=1;jettySize=auto;html=1;exitX=0.5;exitY=1;exitDx=0;exitDy=0;" edge="1" parent="WIyWlLk6GJQsqaUBKTNV-1" source="Cb-9Q1cVGjLwS2rmJe1S-1" target="Cb-9Q1cVGjLwS2rmJe1S-4">
          <mxGeometry relative="1" as="geometry" />
        </mxCell>
        <mxCell id="Cb-9Q1cVGjLwS2rmJe1S-1" value="User enter interger" style="shape=parallelogram;html=1;strokeWidth=2;perimeter=parallelogramPerimeter;whiteSpace=wrap;rounded=1;arcSize=12;size=0.23;" vertex="1" parent="WIyWlLk6GJQsqaUBKTNV-1">
          <mxGeometry x="70" y="150" width="185" height="80" as="geometry" />
        </mxCell>
        <mxCell id="Cb-9Q1cVGjLwS2rmJe1S-5" style="edgeStyle=orthogonalEdgeStyle;rounded=0;orthogonalLoop=1;jettySize=auto;html=1;" edge="1" parent="WIyWlLk6GJQsqaUBKTNV-1" source="Cb-9Q1cVGjLwS2rmJe1S-4" target="Cb-9Q1cVGjLwS2rmJe1S-6">
          <mxGeometry relative="1" as="geometry">
            <mxPoint x="370" y="390" as="targetPoint" />
          </mxGeometry>
        </mxCell>
        <mxCell id="Cb-9Q1cVGjLwS2rmJe1S-10" style="edgeStyle=orthogonalEdgeStyle;rounded=0;orthogonalLoop=1;jettySize=auto;html=1;" edge="1" parent="WIyWlLk6GJQsqaUBKTNV-1" source="Cb-9Q1cVGjLwS2rmJe1S-4" target="Cb-9Q1cVGjLwS2rmJe1S-7">
          <mxGeometry relative="1" as="geometry" />
        </mxCell>
        <mxCell id="Cb-9Q1cVGjLwS2rmJe1S-4" value="If integer &amp;lt;= 0" style="strokeWidth=2;html=1;shape=mxgraph.flowchart.decision;whiteSpace=wrap;" vertex="1" parent="WIyWlLk6GJQsqaUBKTNV-1">
          <mxGeometry x="72.5" y="270" width="180" height="180" as="geometry" />
        </mxCell>
        <mxCell id="Cb-9Q1cVGjLwS2rmJe1S-11" style="edgeStyle=orthogonalEdgeStyle;rounded=0;orthogonalLoop=1;jettySize=auto;html=1;entryX=0.5;entryY=0;entryDx=0;entryDy=0;entryPerimeter=0;" edge="1" parent="WIyWlLk6GJQsqaUBKTNV-1" source="Cb-9Q1cVGjLwS2rmJe1S-6" target="Cb-9Q1cVGjLwS2rmJe1S-13">
          <mxGeometry relative="1" as="geometry">
            <mxPoint x="455" y="560" as="targetPoint" />
          </mxGeometry>
        </mxCell>
        <mxCell id="Cb-9Q1cVGjLwS2rmJe1S-6" value="display the integer&lt;br&gt;&amp;nbsp;is positive" style="shape=parallelogram;html=1;strokeWidth=2;perimeter=parallelogramPerimeter;whiteSpace=wrap;rounded=1;arcSize=12;size=0.23;" vertex="1" parent="WIyWlLk6GJQsqaUBKTNV-1">
          <mxGeometry x="305" y="315" width="170" height="90" as="geometry" />
        </mxCell>
        <mxCell id="Cb-9Q1cVGjLwS2rmJe1S-12" style="edgeStyle=orthogonalEdgeStyle;rounded=0;orthogonalLoop=1;jettySize=auto;html=1;" edge="1" parent="WIyWlLk6GJQsqaUBKTNV-1" source="Cb-9Q1cVGjLwS2rmJe1S-7" target="Cb-9Q1cVGjLwS2rmJe1S-13">
          <mxGeometry relative="1" as="geometry">
            <mxPoint x="400" y="630" as="targetPoint" />
          </mxGeometry>
        </mxCell>
        <mxCell id="Cb-9Q1cVGjLwS2rmJe1S-7" value="Display the &lt;br&gt;integer is negative&amp;nbsp;" style="shape=parallelogram;html=1;strokeWidth=2;perimeter=parallelogramPerimeter;whiteSpace=wrap;rounded=1;arcSize=12;size=0.23;" vertex="1" parent="WIyWlLk6GJQsqaUBKTNV-1">
          <mxGeometry x="95" y="485" width="135" height="100" as="geometry" />
        </mxCell>
        <mxCell id="Cb-9Q1cVGjLwS2rmJe1S-13" value="stop" style="strokeWidth=2;html=1;shape=mxgraph.flowchart.terminator;whiteSpace=wrap;" vertex="1" parent="WIyWlLk6GJQsqaUBKTNV-1">
          <mxGeometry x="340" y="505" width="100" height="60" as="geometry" />
        </mxCell>
      </root>
    </mxGraphModel>
  </diagram>
</mxfile>
